<svg height="512pt" viewBox="-11 0 512 512" width="512pt" xmlns="http://www.w3.org/2000/svg"><path d="m490 267c0 135.308594-109.691406 245-245 245s-245-109.691406-245-245 109.691406-245 245-245 245 109.691406 245 245zm0 0" fill="#ffaf10"/><path d="m124.5 451.039062h-40.058594c-.015625.324219-.039062.648438-.054687.972657 12.347656 10.726562 25.785156 20.230469 40.113281 28.34375zm0 0" fill="#02af8e"/><path d="m365.5 451.039062v29.3125c14.328125-8.109374 27.765625-17.613281 40.109375-28.339843-.011719-.328125-.039063-.648438-.054687-.972657zm0 0" fill="#02af8e"/><path d="m124.5 413.039062c0-19.425781 5.1875-38.507812 15.003906-55.1875l.886719-1.503906h-2.042969c-2.480468 0-4.5-2.019531-4.5-4.5v-5.28125c-1.707031 1.417969-3.390625 2.871094-5.042968 4.363282-27.511719 24.898437-44.8125 58.84375-48.714844 95.582031-.0625.617187-.007813 1.230469.148437 1.8125 1.351563 1.230469 2.71875 2.441406 4.097657 3.640625.238281.035156.480468.074218.726562.074218h39.4375zm0 0" fill="#0f9390"/><path d="m279.085938 356.347656h1v95.691406h-1zm0 0" fill="#0f9390"/><path d="m409.910156 446.511719c-3.902344-36.738281-21.203125-70.683594-48.714844-95.582031-1.652343-1.496094-3.335937-2.945313-5.042968-4.363282v5.28125c0 2.480469-2.019532 4.496094-4.5 4.496094h-2.042969l.886719 1.507812c9.816406 16.679688 15.003906 35.761719 15.003906 55.1875v39h39.4375c.246094 0 .488281-.042968.726562-.078124 1.378907-1.199219 2.746094-2.410157 4.101563-3.636719.152344-.585938.210937-1.195313.144531-1.8125zm0 0" fill="#0f9390"/><path d="m350.777344 356.347656h-10.019532v102.15625c0 2.480469-2.019531 4.496094-4.496093 4.496094h-51.679688c-2.480469 0-4.496093-2.015625-4.496093-4.496094v-102.15625h-140.863282c-9.980468 16.554688-15.722656 35.953125-15.722656 56.691406v66.753907c35.8125 20.488281 77.285156 32.207031 121.5 32.207031s85.691406-11.71875 121.5-32.207031v-66.753907c0-20.738281-5.742188-40.136718-15.722656-56.691406zm0 0" fill="#159e97"/><path d="m136.101562 409.214844c-.871093 1.398437-.871093 3.691406 0 5.09375l15.070313 24.179687c.871094 1.398438 2.300781 1.398438 3.171875 0l15.066406-24.179687c.875-1.402344.875-3.695313 0-5.09375l-15.066406-24.179688c-.871094-1.398437-2.300781-1.398437-3.171875 0zm0 0" fill="#fff"/><path d="m182.101562 409.214844c-.871093 1.398437-.871093 3.691406 0 5.09375l15.070313 24.179687c.871094 1.398438 2.300781 1.398438 3.171875 0l15.066406-24.179687c.875-1.402344.875-3.695313 0-5.09375l-15.066406-24.179688c-.871094-1.398437-2.300781-1.398437-3.171875 0zm0 0" fill="#ffe2b8"/><path d="m228.101562 409.214844c-.871093 1.398437-.871093 3.691406 0 5.09375l15.070313 24.179687c.871094 1.398438 2.300781 1.398438 3.171875 0l15.066406-24.179687c.875-1.402344.875-3.695313 0-5.09375l-15.066406-24.179688c-.871094-1.398437-2.300781-1.398437-3.171875 0zm0 0" fill="#fff"/><path d="m280.085938 399.613281-5.984376 9.601563c-.871093 1.398437-.871093 3.691406 0 5.09375l5.984376 9.597656zm0 0" fill="#ffe2b8"/><path d="m353.414062 409.214844-12.65625-20.308594v45.707031l12.65625-20.308593c.871094-1.398438.871094-3.691407 0-5.089844zm0 0" fill="#fff"/><path d="m284.582031 463c-2.480469 0-4.496093-2.019531-4.496093-4.496094v-11.578125l-1.070313-1.59375c-2.570313-3.824219-6.5-6.015625-10.78125-6.015625s-8.210937 2.195313-10.78125 6.015625l-12.453125 18.53125-12.449219-18.53125c-2.570312-3.820312-6.5-6.011719-10.78125-6.011719s-8.210937 2.191407-10.78125 6.015626l-12.453125 18.527343-12.449218-18.53125c-2.570313-3.820312-6.5-6.011719-10.78125-6.011719s-8.210938 2.191407-10.78125 6.015626l-12.453126 18.527343-12.453124-18.53125c-2.566407-3.820312-6.496094-6.011719-10.777344-6.011719-1.878906 0-3.679688.441407-5.335938 1.238282v28.839844l5.335938-7.945313 12.449218 18.53125c2.570313 3.824219 6.5 6.015625 10.78125 6.015625s8.210938-2.191406 10.78125-6.015625l12.453126-18.53125 12.449218 18.535156c2.570313 3.820313 6.5 6.011719 10.78125 6.011719s8.210938-2.191406 10.78125-6.011719l12.453125-18.53125 12.449219 18.53125c2.570312 3.820313 6.5 6.015625 10.78125 6.015625s8.210938-2.195312 10.78125-6.015625l12.453125-18.53125 12.449219 18.53125c2.570312 3.824219 6.5 6.015625 10.78125 6.015625s8.210937-2.191406 10.78125-6.015625l11.414062-16.988281zm0 0" fill="#fff"/><path d="m361.164062 439.320312c-4.28125 0-8.210937 2.191407-10.78125 6.015626l-9.941406 14.792968c-.5625 1.453125-1.863281 2.53125-3.441406 2.796875-.238281.042969-.484375.074219-.738281.074219h-20.523438l11.414063 16.988281c2.570312 3.820313 6.5 6.011719 10.78125 6.011719s8.210937-2.191406 10.78125-6.011719l12.449218-18.53125 5.335938 7.941407v-28.839844c-1.65625-.796875-3.457031-1.238282-5.335938-1.238282zm0 0" fill="#fff"/><path d="m155.0625 132.921875 1.734375-1.710937h-2.992187c-4.964844 0-9-4.035157-9-9v-13.699219c0-4.914063 3.996093-8.949219 8.910156-8.996094l.914062-.007813.070313-.914062c.519531-6.464844 1.621093-12.816406 3.273437-18.988281-2.183594-.28125-4.40625-.441407-6.667968-.441407-28.898438 0-52.320313 23.429688-52.320313 52.324219 0 19.632813 10.820313 36.734375 26.820313 45.6875 6.441406-16.421875 16.3125-31.464843 29.257812-44.253906zm0 0" fill="#bf7e52"/><path d="m135.613281 157.4375c5.394531-8.820312 11.898438-17.050781 19.449219-24.515625l1.734375-1.710937h-2.992187c-4.964844 0-9-4.035157-9-9v-13.699219c0-2.949219 1.445312-5.574219 3.660156-7.21875-15.398438 1.4375-27.492188 14.429687-27.492188 30.195312 0 10.988281 5.875 20.628907 14.640625 25.949219zm0 0" fill="#d18b5a"/><path d="m364.53125 85.996094c1.386719 6.839844 2.117188 13.914062 2.117188 21.15625v8.472656l.46875.292969c7.484374 4.714843 11.953124 12.800781 11.953124 21.625 0 12.039062-8.542968 22.554687-20.308593 25.003906l-1.308594.273437.628906 1.175782c2.273438 4.28125 4.289063 8.695312 6.054688 13.210937 16.03125-8.941406 26.878906-26.058593 26.878906-45.71875 0-19.496093-10.671875-36.492187-26.484375-45.492187zm0 0" fill="#a56c46"/><path d="m349.136719 300.070312c15.617187-21.332031 24.847656-47.640624 24.847656-76.105468 0-22.210938-5.617187-43.113282-15.507813-61.363282-1.601562.316407-3.253906.484376-4.949218.484376-14.082032 0-25.542969-11.457032-25.542969-25.542969 0-1.730469.175781-3.457031.515625-5.132813l.246094-1.199218h-173.359375c-24.269531 23.453124-39.367188 56.339843-39.367188 92.753906 0 28.464844 9.226563 54.769531 24.847657 76.105468zm0 0" fill="#bf7e52"/><path d="m165.84375 300.070312c-15.617188-21.332031-24.84375-47.636718-24.84375-76.105468 0-36.414063 15.097656-69.304688 39.367188-92.753906h-24.980469c-24.273438 23.453124-39.367188 56.339843-39.367188 92.753906 0 28.464844 9.226563 54.773437 24.84375 76.105468zm0 0" fill="#a56c46"/><path d="m305.019531 300.070312c4.292969-7.550781 6.703125-16.03125 6.703125-24.996093 0-31.585938-29.871094-57.191407-66.722656-57.191407s-66.722656 25.605469-66.722656 57.191407c0 8.964843 2.414062 17.445312 6.703125 24.996093zm0 0" fill="#ffe2b8"/><path d="m203.617188 300.070312c-4.289063-7.550781-6.699219-16.03125-6.699219-24.996093 0-28.875 24.964843-52.734375 57.402343-56.625-3.046874-.367188-6.15625-.566407-9.320312-.566407-36.851562 0-66.722656 25.605469-66.722656 57.191407 0 8.964843 2.414062 17.445312 6.703125 24.996093zm0 0" fill="#ffc987"/><path d="m245 261.5c-2.894531 0-5.675781-.375-8.246094-1.054688v39.625h16.492188v-39.625c-2.570313.679688-5.347656 1.054688-8.246094 1.054688zm0 0" fill="#d18b5a"/><path d="m269.945312 244.246094c0-10.078125-11.167968-18.25-24.945312-18.25s-24.945312 8.171875-24.945312 18.25c0 10.082031 11.167968 18.253906 24.945312 18.253906s24.945312-8.171875 24.945312-18.253906zm0 0" fill="#fe3745"/><path d="m232.109375 244.246094c0-8.558594 8.054687-15.738282 18.917969-17.710938-1.929688-.351562-3.949219-.539062-6.027344-.539062-13.777344 0-24.945312 8.171875-24.945312 18.25 0 10.082031 11.167968 18.253906 24.945312 18.253906 2.078125 0 4.097656-.191406 6.027344-.539062-10.863282-1.976563-18.917969-9.152344-18.917969-17.714844zm0 0" fill="#ea2a3d"/><path d="m208.421875 200.195312c0 10.277344-8.332031 18.609376-18.609375 18.609376s-18.605469-8.332032-18.605469-18.609376c0-10.273437 8.328125-18.605468 18.605469-18.605468s18.609375 8.332031 18.609375 18.605468zm0 0" fill="#1a2b63"/><path d="m318.792969 200.195312c0 10.277344-8.328125 18.609376-18.605469 18.609376s-18.609375-8.332032-18.609375-18.609376c0-10.273437 8.332031-18.605468 18.609375-18.605468s18.605469 8.332031 18.605469 18.605468zm0 0" fill="#1a2b63"/><path d="m279.085938 356.347656v102.15625c0 3.023438 2.472656 5.496094 5.496093 5.496094h51.679688c3.023437 0 5.496093-2.472656 5.496093-5.496094v-102.15625zm0 0" fill="#b7092b"/><path d="m291.328125 458.503906v-102.15625h-12.242187v102.15625c0 3.023438 2.472656 5.496094 5.496093 5.496094h12.242188c-3.023438 0-5.496094-2.472656-5.496094-5.496094zm0 0" fill="#a00026"/><path d="m357.152344 351.847656c0 3.023438-2.476563 5.5-5.5 5.5h-213.304688c-3.023437 0-5.5-2.476562-5.5-5.5v-47.277344c0-3.023437 2.476563-5.5 5.5-5.5h213.308594c3.023438 0 5.496094 2.476563 5.496094 5.5zm0 0" fill="#ea2a3d"/><path d="m171.332031 242.996094c0 12.144531-9.847656 21.988281-21.992187 21.988281-12.144532 0-21.988282-9.84375-21.988282-21.988281 0-12.144532 9.84375-21.992188 21.988282-21.992188 12.144531 0 21.992187 9.847656 21.992187 21.992188zm0 0" fill="#ff9f60"/><path d="m357.152344 242.996094c0 12.144531-9.84375 21.988281-21.992188 21.988281-12.144531 0-21.988281-9.84375-21.988281-21.988281 0-12.144532 9.84375-21.992188 21.988281-21.992188 12.148438 0 21.992188 9.847656 21.992188 21.992188zm0 0" fill="#ff9f60"/><path d="m153.804688 99.511719h184.011718c4.960938 0 9 4.035156 9 9v4.355469l1.210938-.269532c1.816406-.398437 3.667968-.597656 5.5-.597656 5.21875 0 10.074218 1.574219 14.125 4.269531v-9.121093c-.003906-59.175782-47.972656-107.148438-107.152344-107.148438-56.613281 0-102.964844 43.902344-106.878906 99.519531.0625 0 .121094-.007812.183594-.007812zm0 0" fill="#ea2a3d"/><path d="m153.804688 99.511719h24.464843c3.628907-51.519531 43.675781-92.972657 94.558594-98.800781-4.046875-.464844-8.15625-.710938-12.328125-.710938-56.613281 0-102.964844 43.902344-106.878906 99.519531.0625 0 .121094-.007812.183594-.007812zm0 0" fill="#b7092b"/><path d="m347.816406 112.652344v-4.140625c0-5.5-4.5-10-10-10h-184.011718c-5.5 0-10 4.5-10 10v13.699219c0 5.5 4.5 10 10 10h174.746093c2.0625-9.683594 9.632813-17.347657 19.265625-19.558594zm0 0" fill="#eef6ff"/><path d="m168 122.210938v-13.699219c0-5.5 4.5-10 10-10h-24.195312c-5.5 0-10 4.5-10 10v13.699219c0 5.5 4.5 10 10 10h24.195312c-5.5 0-10-4.5-10-10zm0 0" fill="#d9eafc"/><path d="m380.070312 137.542969c0 14.660156-11.882812 26.542969-26.542968 26.542969s-26.542969-11.882813-26.542969-26.542969c0-14.660157 11.882813-26.542969 26.542969-26.542969s26.542968 11.882812 26.542968 26.542969zm0 0" fill="#fff"/><path d="m339 137.542969c0-12.59375 8.769531-23.128907 20.535156-25.851563-1.929687-.449218-3.9375-.691406-6.007812-.691406-14.660156 0-26.542969 11.882812-26.542969 26.542969 0 14.660156 11.882813 26.542969 26.542969 26.542969 2.066406 0 4.078125-.242188 6.007812-.691407-11.765625-2.722656-20.535156-13.257812-20.535156-25.851562zm0 0" fill="#d9eafc"/><path d="m264.144531 81.863281c0 2.75-2.25 5-5 5h-2.316406c-2.75 0-5-2.25-5-5v-54.871093c0-2.75 2.25-5 5-5h2.316406c2.75 0 5 2.25 5 5zm0 0" fill="#fff"/><path d="m285.492188 71.648438c-1.375 2.382812-4.445313 3.203124-6.828126 1.828124l-47.519531-27.433593c-2.382812-1.375-3.207031-4.449219-1.832031-6.832031l1.160156-2.007813c1.375-2.378906 4.449219-3.203125 6.832032-1.828125l47.519531 27.433594c2.378906 1.375 3.203125 4.449218 1.828125 6.832031zm0 0" fill="#fff"/><path d="m237.304688 73.480469c-2.382813 1.375-5.453126.550781-6.828126-1.832031l-1.160156-2.007813c-1.375-2.382813-.554687-5.453125 1.828125-6.828125l47.519531-27.4375c2.382813-1.375 5.457032-.550781 6.832032 1.828125l1.15625 2.011719c1.375 2.378906.554687 5.453125-1.828125 6.828125zm0 0" fill="#fff"/><g fill="#fe3745"><path d="m156.488281 299.070312h16.492188v58.273438h-16.492188zm0 0"/><path d="m196.621094 299.070312h16.492187v58.273438h-16.492187zm0 0"/><path d="m236.753906 299.070312h16.492188v58.273438h-16.492188zm0 0"/><path d="m276.886719 299.070312h16.492187v58.273438h-16.492187zm0 0"/><path d="m317.019531 299.070312h16.492188v58.273438h-16.492188zm0 0"/></g><path d="m279.085938 371.640625h62.671874v16.492187h-62.671874zm0 0" fill="#ea2a3d"/><path d="m279.085938 404.625h62.671874v16.492188h-62.671874zm0 0" fill="#ea2a3d"/><path d="m279.085938 437.609375h62.671874v16.496094h-62.671874zm0 0" fill="#ea2a3d"/></svg>